<?xml version="1.0" encoding="utf-8"?>
<!-- Generator: Adobe Illustrator 28.0.0, SVG Export Plug-In . SVG Version: 6.00 Build 0)  -->
<svg version="1.1" id="Layer_1" xmlns="http://www.w3.org/2000/svg" xmlns:xlink="http://www.w3.org/1999/xlink" x="0px" y="0px"
	 viewBox="0 0 450 64" style="enable-background:new 0 0 450 64;" xml:space="preserve">
<style type="text/css">
	.st0{clip-path:url(#SVGID_00000120519448456289336870000008811250897460411047_);}
	.st1{fill:#552100;}
	.st2{fill:#141B36;}
	.st3{fill:#451B00;}
</style>#4f2323
<g>
	<defs>
		<rect id="SVGID_1_" width="450" height="64"/>
	</defs>
	<clipPath id="SVGID_00000170984906652452047750000015300033679331870907_">
		<use xlink:href="#SVGID_1_"  style="overflow:visible;"/>
	</clipPath>
	<g style="clip-path:url(#SVGID_00000170984906652452047750000015300033679331870907_);">
		<g>
			<path class="st1" d="M450,63.2c0-6.6-5.3-12-11.9-12l-170.6-1c-6.6,0-11.9-5.4-11.9-12V20.5c0-6.6-5.4-12-12-12H12
				c-6.6,0-12,5.4-12,12V64h450V63.2z"/>
		</g>
		<g>
			<path class="st2" d="M0,64c0-6.6,5.4-12,12-12h203.9c4.7,0,8.9-2.7,10.9-7L244.3,7c2-4.2,6.2-7,10.9-7L438,0c6.6,0,12,5.4,12,12
				v52H0L0,64z"/>
		</g>
		<g>
			<path class="st3" d="M0,64c0-6.6,5.4-12,12-12l199.3,0c5.2,0,9.8-3.3,11.4-8.3l11.6-35.5c1.6-4.9,6.2-8.3,11.4-8.3H438
				c6.6,0,12,5.4,12,12v52H0L0,64z"/>
		</g>
	</g>
</g>
</svg>
